HIERARCHY
ROOT Hips
{
  OFFSET 0 0 0
  CHANNELS 6 Xposition Yposition Zposition Zrotation Yrotation Xrotation
  JOINT LeftThigh
  {
    OFFSET 8.409438 0 -5.917753
    CHANNELS 3 Zrotation Yrotation Xrotation
    JOINT LeftLeg
    {
      OFFSET 0 0 -42.358652
      CHANNELS 3 Zrotation Yrotation Xrotation
      JOINT LeftFoot
      {
        OFFSET 0 0 -39.357303
        CHANNELS 3 Zrotation Yrotation Xrotation
      }
    }
  }
  JOINT RightThigh
  {
    OFFSET -8.409438 0 -5.917753
    CHANNELS 3 Zrotation Yrotation Xrotation
    JOINT RightLeg
    {
      OFFSET 0 0 -42.358652
      CHANNELS 3 Zrotation Yrotation Xrotation
      JOINT RightFoot
      {
        OFFSET 0 0 -39.357303
        CHANNELS 3 Zrotation Yrotation Xrotation
      }
    }
  }
  JOINT SpineLow
  {
    OFFSET 0 0 4.719101
    CHANNELS 3 Zrotation Yrotation Xrotation
    JOINT SpineMid
    {
      OFFSET 0 0 12.899191
      CHANNELS 3 Zrotation Yrotation Xrotation
      JOINT Chest
      {
        OFFSET 0 0 12.899191
        CHANNELS 3 Zrotation Yrotation Xrotation
        JOINT LeftShoulder
        {
          OFFSET 7.550562 1.41573 9.438202
          CHANNELS 3 Zrotation Yrotation Xrotation
          JOINT LeftArm
          {
            OFFSET 9.155056 0 4.247191
            CHANNELS 3 Zrotation Yrotation Xrotation
            JOINT LeftForearm
            {
              OFFSET 0 0 25.771955
              CHANNELS 3 Zrotation Yrotation Xrotation
              JOINT LeftHand
              {
                OFFSET 0 0 25.197169
                CHANNELS 3 Zrotation Yrotation Xrotation
              }
            }
          }
        }
        JOINT RightShoulder
        {
          OFFSET -7.550562 1.41573 9.438202
          CHANNELS 3 Zrotation Yrotation Xrotation
          JOINT RightArm
          {
            OFFSET -9.155056 0 4.247191
            CHANNELS 3 Zrotation Yrotation Xrotation
            JOINT RightForearm
            {
              OFFSET 0 0 -25.771955
              CHANNELS 3 Zrotation Yrotation Xrotation
              JOINT RightHand
              {
                OFFSET 0 0 -25.197169
                CHANNELS 3 Zrotation Yrotation Xrotation
              }
            }
          }
        }
        JOINT Neck
        {
          OFFSET 0 0 15.101124
          CHANNELS 3 Zrotation Yrotation Xrotation
          JOINT Head
          {
            OFFSET 0 0 11.325843
            CHANNELS 3 Zrotation Yrotation Xrotation
            End Site
            {
              OFFSET 0 0 14.157303
            }
          }
        }
      }
    }
  }
}
MOTION
Frames: 10
Frame Time: 0.0
0.0  89.887642  0.0  2.554668  32.813834  -83.523664  27.689996  -45.873745  -23.065888  -13.237244  55.488788  33.261669  3.409291  -2.396551  -0.61335  -26.97603  -0.154228  -52.208309  -7.188917  19.434774  41.825183  7.358454  0.424792  -1.173111  -0.915737  -0.3519  -0.108187  -2.50166  -0.965818  -0.282365  -2.50166  -0.965818  -0.282365  -7.859945  20.860586  5.699702  116.675431  45.667338  -159.245951  -19.595636  -13.570573  69.898153  78.558613  41.832809  -10.111793  1.074188  3.525105  23.07469  38.011697  52.592429  7.076144  -24.345633  -11.081924  -83.012978  78.826097  28.855946  -16.247382  -22.929321  3.819825  -0.562527  -17.187103  2.890811  -0.278582  
0.0  89.887642  0.0  2.452343  32.959474  -83.438553  27.615401  -45.79141  -23.764335  -12.952606  55.84215  33.912535  3.565921  -2.422236  -0.652875  -26.726808  -0.196236  -52.20935  -6.882734  19.239235  41.228015  7.484518  0.283125  -0.913193  -0.931938  -0.353017  -0.096571  -2.546113  -0.968491  -0.250335  -2.546113  -0.968491  -0.250335  -8.143423  20.864783  5.555251  116.552028  45.506641  -159.064965  -19.844401  -13.720162  69.506725  79.168978  40.826828  -9.270315  0.330323  3.43562  22.626948  38.871879  52.969158  7.6705  -24.149201  -11.142016  -83.000855  78.834803  29.064171  -16.539232  -23.108454  3.569872  -0.722265  -17.321531  2.709326  -0.406963  
0.0  89.887642  0.0  2.323116  33.004594  -83.476599  27.654405  -45.846221  -24.363148  -12.53474  56.161797  34.668648  3.570582  -2.460408  -0.706819  -26.570307  -0.274141  -52.504665  -6.135794  18.436511  41.397214  7.32528  0.450981  -0.88435  -0.925114  -0.371958  -0.09705  -2.527393  -1.020248  -0.251022  -2.527393  -1.020248  -0.251022  -8.180144  20.990087  5.659059  116.707227  45.533276  -159.052176  -19.951245  -13.587476  69.417792  78.829144  40.77783  -9.796081  0.177761  3.457176  22.63658  39.093664  53.331664  7.891036  -24.188741  -11.162163  -82.859951  78.854301  29.249054  -16.757039  -23.318864  3.439742  -0.830745  -17.479247  2.616044  -0.492224  
0.0  89.887642  0.0  2.124455  33.002917  -83.668406  27.649295  -45.951765  -24.701569  -12.226887  56.329659  35.320031  3.558548  -2.443433  -0.834205  -26.32939  -0.227737  -52.460106  -5.590939  17.542952  41.652389  6.900157  0.618088  -1.162158  -0.975186  -0.383884  -0.121928  -2.663839  -1.054026  -0.317762  -2.663839  -1.054026  -0.317762  -7.684892  21.061036  6.036451  116.428303  45.392273  -158.799401  -20.459296  -13.671335  68.93459  78.918419  40.764027  -10.218724  0.318836  3.381734  22.929946  39.026089  53.704468  7.872343  -24.26311  -11.139332  -82.675521  78.859543  29.347407  -17.026124  -23.273367  3.38835  -0.787235  -17.445597  2.575692  -0.461772  
0.0  89.887642  0.0  1.927825  32.949174  -83.805182  27.574434  -46.052253  -24.88611  -11.817936  56.424871  35.902492  3.544186  -2.472358  -0.922223  -26.237971  -0.350101  -52.24671  -5.300917  17.056119  41.645111  6.575939  0.645933  -1.401529  -0.958641  -0.409364  -0.117525  -2.618585  -1.123408  -0.304986  -2.618584  -1.123408  -0.304986  -7.646115  21.188382  6.16798  116.678806  45.436687  -158.750989  -20.802812  -13.416817  68.908465  79.054251  40.759656  -10.543135  0.16198  3.42962  23.009252  39.22892  54.018302  7.966653  -24.301183  -11.110626  -82.481956  78.796364  29.401947  -17.104357  -23.451609  3.311119  -0.859203  -17.579189  2.520736  -0.517835  
0.0  89.887642  0.0  1.770021  32.821476  -83.900502  27.478642  -46.110482  -24.934142  -11.112582  56.409236  36.615505  3.360233  -2.569085  -0.986778  -26.219596  -0.582053  -52.194928  -4.994546  16.930835  41.700064  6.301468  0.585018  -1.508872  -0.962321  -0.431347  -0.137677  -2.628203  -1.184304  -0.35913  -2.628203  -1.184304  -0.35913  -7.401507  21.347054  6.448887  116.979539  45.473391  -158.510914  -21.098112  -13.317918  68.72919  79.293562  40.786982  -10.707933  0.130716  3.454169  23.220955  39.439931  54.341894  8.058103  -24.49902  -11.135094  -82.185553  79.269095  29.20657  -16.439599  -23.486233  3.314915  -0.873327  -17.60506  2.524194  -0.528111  
0.0  89.887642  0.0  1.73244  32.782848  -83.893628  27.147388  -46.07915  -24.905055  -10.850873  56.482118  36.851393  3.470089  -2.592181  -1.018433  -26.360989  -0.76753  -52.327039  -5.181617  17.188048  41.608157  6.499929  0.55803  -1.532667  -0.960105  -0.421392  -0.136436  -2.622211  -1.157035  -0.356172  -2.622211  -1.157035  -0.356172  -7.379655  21.374704  6.55031  117.574424  45.571271  -158.242267  -21.159055  -13.147638  68.654019  79.457224  40.83154  -10.792505  -0.013081  3.420327  23.212069  39.78651  54.576126  8.236243  -24.487472  -11.199579  -81.971445  79.12755  29.135292  -16.36901  -23.593937  3.22448  -0.896348  -17.686089  2.457335  -0.548345  
0.0  89.887642  0.0  1.805249  32.834096  -83.850017  26.641578  -45.900627  -24.628413  -10.487997  56.39595  37.166448  3.394858  -2.693182  -1.128714  -26.562949  -1.002898  -52.502576  -5.370217  17.68026  41.450361  6.810561  0.567248  -1.517853  -0.982652  -0.384609  -0.125114  -2.684194  -1.056171  -0.326323  -2.684194  -1.056171  -0.326323  -7.334649  21.238176  6.56851  118.288336  45.625131  -157.834289  -21.201108  -12.937834  68.534578  79.746665  40.884306  -10.723217  -0.536468  3.242357  22.929492  40.664182  54.805808  8.771492  -24.508159  -11.290542  -81.710971  78.90728  29.059422  -16.487129  -23.607431  3.116064  -0.914702  -17.696585  2.376616  -0.566282  
0.0  89.887642  0.0  1.909135  32.812555  -83.752721  26.213618  -45.72507  -24.459266  -10.316782  56.44351  37.259647  3.568559  -2.739816  -1.177555  -26.783415  -1.066813  -52.732829  -5.59715  18.008261  41.333434  7.161337  0.449339  -1.508988  -0.985757  -0.345989  -0.106505  -2.69311  -0.949884  -0.276982  -2.69311  -0.949884  -0.276982  -7.32296  21.101338  6.533692  119.067266  45.720875  -157.393868  -21.05052  -12.765974  68.410947  79.821901  40.90578  -10.735211  -0.622236  3.072465  22.693623  41.140267  54.970945  9.186436  -24.49327  -11.459695  -81.505767  78.738318  28.994475  -16.483774  -23.665985  3.025825  -0.937616  -17.740766  2.309815  -0.586721  
0.0  89.887642  0.0  2.149304  33.013436  -83.502695  25.713323  -45.495873  -24.237112  -10.037251  56.459695  37.402615  3.850033  -2.731503  -1.159436  -27.193543  -0.997219  -53.071073  -5.875042  18.273511  41.25244  7.492663  0.3085  -1.519424  -1.038505  -0.295792  -0.109687  -2.837432  -0.813054  -0.287067  -2.837432  -0.813054  -0.287067  -7.277948  20.932832  6.484389  119.885942  45.768514  -156.938159  -20.597126  -12.279222  68.645313  79.673717  41.268546  -11.380787  -1.048695  2.90271  22.335606  41.900383  55.102596  9.714806  -24.49394  -11.601042  -81.28017  78.52176  29.037697  -16.840846  -23.575252  2.995659  -0.937061  -17.672862  2.286958  -0.587922  
